<svg xmlns="http://www.w3.org/2000/svg" xmlns:xlink="http://www.w3.org/1999/xlink" width="472" zoomAndPan="magnify" viewBox="0 0 354 240.749995" height="321" preserveAspectRatio="xMidYMid meet" version="1.0"><defs><g/><clipPath id="f9d7c7119f"><path d="M 0.183594 0 L 353.816406 0 L 353.816406 240.5 L 0.183594 240.5 Z M 0.183594 0 " clip-rule="nonzero"/></clipPath><clipPath id="a1f6d3f524"><path d="M 14 94 L 84 94 L 84 170.789062 L 14 170.789062 Z M 14 94 " clip-rule="nonzero"/></clipPath><clipPath id="f73f91b4bf"><path d="M 0.183594 77.882812 L 98.332031 77.882812 L 98.332031 127 L 0.183594 127 Z M 0.183594 77.882812 " clip-rule="nonzero"/></clipPath></defs><g clip-path="url(#f9d7c7119f)"><path fill="#ffffff" d="M 0.183594 0 L 353.816406 0 L 353.816406 240.5 L 0.183594 240.5 Z M 0.183594 0 " fill-opacity="1" fill-rule="nonzero"/></g><g clip-path="url(#a1f6d3f524)"><path fill="#ce3a45" d="M 83.433594 124.9375 Z M 83.433594 124.9375 L 49.105469 94.53125 L 14.753906 124.949219 L 14.753906 168.410156 C 14.753906 169.535156 15.660156 170.433594 16.78125 170.433594 L 38.25 170.433594 L 38.25 151.378906 C 38.25 150.253906 39.152344 149.347656 40.273438 149.347656 L 57.914062 149.347656 C 59.035156 149.347656 59.9375 150.253906 59.9375 151.378906 L 59.9375 170.433594 L 81.410156 170.433594 C 82.535156 170.433594 83.433594 169.535156 83.433594 168.410156 L 83.433594 124.933594 Z M 14.753906 124.949219 Z M 14.753906 124.949219 " fill-opacity="1" fill-rule="nonzero"/></g><g clip-path="url(#f73f91b4bf)"><path fill="#ce3a45" d="M 48.902344 77.890625 L 0.183594 121.03125 L 5.316406 126.820312 L 49.105469 88.046875 L 92.882812 126.820312 L 98.003906 121.03125 L 49.292969 77.890625 L 49.105469 78.109375 L 48.90625 77.890625 Z M 48.902344 77.890625 " fill-opacity="1" fill-rule="nonzero"/></g><path fill="#ce3a45" d="M 14.753906 84.101562 L 27.101562 84.101562 L 26.996094 91.417969 L 14.753906 102.476562 Z M 14.753906 84.101562 " fill-opacity="1" fill-rule="nonzero"/><g fill="#15546d" fill-opacity="1"><g transform="translate(94.336965, 168.909445)"><g><path d="M 55 0 L 40.09375 0 L 34.203125 -47.34375 L 27.765625 0 L 13.265625 0 L -0.140625 -91.109375 L 16.96875 -91.109375 L 22.703125 -35.703125 L 29 -91.109375 L 41.59375 -91.109375 L 47.34375 -35.703125 L 53.625 -91.109375 L 69.359375 -91.109375 Z M 55 0 "/></g></g></g><g fill="#15546d" fill-opacity="1"><g transform="translate(159.041609, 168.909445)"><g><path d="M 45.703125 -16.96875 C 45.703125 -13.957031 45.222656 -11.378906 44.265625 -9.234375 C 43.304688 -7.085938 42.050781 -5.332031 40.5 -3.96875 C 38.945312 -2.601562 37.164062 -1.597656 35.15625 -0.953125 C 33.15625 -0.316406 31.0625 0 28.875 0 L 3.96875 0 L 3.96875 -91.109375 L 28.875 -91.109375 C 31.0625 -91.109375 33.15625 -90.789062 35.15625 -90.15625 C 37.164062 -89.519531 38.945312 -88.515625 40.5 -87.140625 C 42.050781 -85.773438 43.304688 -84.019531 44.265625 -81.875 C 45.222656 -79.738281 45.703125 -77.164062 45.703125 -74.15625 L 45.703125 -58.96875 C 45.703125 -56.226562 45.109375 -53.695312 43.921875 -51.375 C 42.734375 -49.050781 40.539062 -47.382812 37.34375 -46.375 C 40.351562 -45.1875 42.5 -43.519531 43.78125 -41.375 C 45.0625 -39.238281 45.703125 -36.710938 45.703125 -33.796875 Z M 29.140625 -72.234375 C 29.140625 -73.785156 28.863281 -74.859375 28.3125 -75.453125 C 27.769531 -76.046875 27 -76.34375 26 -76.34375 L 21.609375 -76.34375 L 21.609375 -52.265625 L 26 -52.265625 C 28.09375 -52.265625 29.140625 -53.628906 29.140625 -56.359375 Z M 29.140625 -35.15625 C 29.140625 -37.894531 28.09375 -39.265625 26 -39.265625 L 21.609375 -39.265625 L 21.609375 -14.640625 L 26 -14.640625 C 27 -14.640625 27.769531 -14.9375 28.3125 -15.53125 C 28.863281 -16.125 29.140625 -17.195312 29.140625 -18.75 Z M 29.140625 -35.15625 "/></g></g></g><g fill="#15546d" fill-opacity="1"><g transform="translate(203.773823, 168.909445)"><g><path d="M 37.21875 -17.234375 C 37.21875 -11.765625 35.664062 -7.34375 32.5625 -3.96875 C 29.457031 -0.59375 25.441406 1.09375 20.515625 1.09375 C 15.597656 1.09375 11.519531 -0.59375 8.28125 -3.96875 C 5.039062 -7.34375 3.421875 -11.765625 3.421875 -17.234375 L 3.421875 -49.9375 C 3.421875 -52.675781 3.851562 -55.160156 4.71875 -57.390625 C 5.582031 -59.628906 6.789062 -61.566406 8.34375 -63.203125 C 9.894531 -64.847656 11.695312 -66.125 13.75 -67.03125 C 15.800781 -67.945312 18.054688 -68.40625 20.515625 -68.40625 C 25.441406 -68.40625 29.457031 -66.691406 32.5625 -63.265625 C 35.664062 -59.847656 37.21875 -55.40625 37.21875 -49.9375 L 37.21875 -31.46875 L 17.515625 -31.46875 L 17.515625 -15.1875 C 17.515625 -14.09375 17.765625 -13.132812 18.265625 -12.3125 C 18.765625 -11.488281 19.609375 -11.078125 20.796875 -11.078125 C 22.066406 -11.078125 22.953125 -11.488281 23.453125 -12.3125 C 23.960938 -13.132812 24.21875 -14.09375 24.21875 -15.1875 L 24.21875 -24.90625 L 37.21875 -24.90625 Z M 23.8125 -52.125 C 23.8125 -53.21875 23.535156 -54.148438 22.984375 -54.921875 C 22.429688 -55.703125 21.65625 -56.09375 20.65625 -56.09375 C 19.65625 -56.09375 18.878906 -55.703125 18.328125 -54.921875 C 17.785156 -54.148438 17.515625 -53.21875 17.515625 -52.125 L 17.515625 -38.859375 L 23.8125 -38.859375 Z M 23.8125 -52.125 "/></g></g></g><g fill="#15546d" fill-opacity="1"><g transform="translate(239.887801, 168.909445)"><g><path d="M 26.125 0 L 25.453125 -5.203125 C 23.171875 -1.003906 19.75 1.09375 15.1875 1.09375 C 11.351562 1.09375 8.429688 -0.34375 6.421875 -3.21875 C 4.421875 -6.09375 3.421875 -9.625 3.421875 -13.8125 L 3.421875 -54.046875 C 3.421875 -55.953125 3.71875 -57.769531 4.3125 -59.5 C 4.90625 -61.238281 5.703125 -62.769531 6.703125 -64.09375 C 7.703125 -65.414062 8.863281 -66.460938 10.1875 -67.234375 C 11.507812 -68.015625 12.945312 -68.40625 14.5 -68.40625 C 16.414062 -68.40625 18.054688 -67.972656 19.421875 -67.109375 C 20.796875 -66.242188 22.164062 -64.988281 23.53125 -63.34375 L 23.53125 -91.109375 L 37.890625 -91.109375 L 37.890625 0 Z M 23.53125 -51.859375 C 23.53125 -52.953125 23.253906 -53.863281 22.703125 -54.59375 C 22.160156 -55.320312 21.429688 -55.6875 20.515625 -55.6875 C 19.609375 -55.6875 18.878906 -55.320312 18.328125 -54.59375 C 17.785156 -53.863281 17.515625 -52.953125 17.515625 -51.859375 L 17.515625 -15.328125 C 17.515625 -14.234375 17.785156 -13.320312 18.328125 -12.59375 C 18.878906 -11.863281 19.609375 -11.5 20.515625 -11.5 C 21.429688 -11.5 22.160156 -11.863281 22.703125 -12.59375 C 23.253906 -13.320312 23.53125 -14.234375 23.53125 -15.328125 Z M 23.53125 -51.859375 "/></g></g></g><g fill="#15546d" fill-opacity="1"><g transform="translate(277.506542, 168.909445)"><g><path d="M 35.984375 -17.515625 C 35.984375 -15.046875 35.660156 -12.671875 35.015625 -10.390625 C 34.378906 -8.117188 33.378906 -6.140625 32.015625 -4.453125 C 30.648438 -2.765625 28.914062 -1.414062 26.8125 -0.40625 C 24.71875 0.59375 22.253906 1.09375 19.421875 1.09375 C 14.140625 1.09375 9.992188 -0.523438 6.984375 -3.765625 C 3.972656 -7.003906 2.46875 -11.40625 2.46875 -16.96875 L 2.46875 -21.203125 L 14.90625 -21.203125 L 14.90625 -15.59375 C 14.90625 -12.40625 16.140625 -10.8125 18.609375 -10.8125 C 21.335938 -10.8125 22.703125 -12.269531 22.703125 -15.1875 C 22.703125 -16.832031 22.425781 -18.242188 21.875 -19.421875 C 21.332031 -20.609375 20.582031 -21.726562 19.625 -22.78125 C 18.675781 -23.832031 17.539062 -24.972656 16.21875 -26.203125 C 14.894531 -27.429688 13.457031 -28.957031 11.90625 -30.78125 C 9.625 -33.15625 7.523438 -35.867188 5.609375 -38.921875 C 3.691406 -41.972656 2.734375 -45.691406 2.734375 -50.078125 C 2.734375 -56.097656 4.304688 -60.65625 7.453125 -63.75 C 10.597656 -66.851562 14.546875 -68.40625 19.296875 -68.40625 C 21.847656 -68.40625 24.125 -67.925781 26.125 -66.96875 C 28.132812 -66.007812 29.84375 -64.707031 31.25 -63.0625 C 32.664062 -61.425781 33.738281 -59.535156 34.46875 -57.390625 C 35.207031 -55.242188 35.578125 -52.941406 35.578125 -50.484375 L 35.578125 -46.25 L 23.265625 -46.25 L 23.265625 -51.578125 C 23.265625 -52.859375 22.96875 -53.929688 22.375 -54.796875 C 21.78125 -55.660156 20.890625 -56.09375 19.703125 -56.09375 C 17.328125 -56.09375 16.140625 -54.722656 16.140625 -51.984375 C 16.140625 -49.703125 16.734375 -47.671875 17.921875 -45.890625 C 19.109375 -44.117188 20.75 -42 22.84375 -39.53125 C 24.300781 -38.164062 25.804688 -36.773438 27.359375 -35.359375 C 28.910156 -33.953125 30.320312 -32.40625 31.59375 -30.71875 C 32.875 -29.03125 33.925781 -27.113281 34.75 -24.96875 C 35.570312 -22.820312 35.984375 -20.335938 35.984375 -17.515625 Z M 35.984375 -17.515625 "/></g></g></g></svg>